<svg width="22" height="22" viewBox="0 0 22 22" fill="none" xmlns="http://www.w3.org/2000/svg">
<path d="M10.826 1.45607C11.1282 1.02329 11.5526 1.28148 11.5827 1.80843C11.7698 5.08753 12.3227 15.9198 11.5033 16.6223C11.5007 16.6245 11.5015 16.6237 11.4989 16.6259C11.4144 16.6967 6.48926 20.8122 5.59432 20.0213C4.88027 19.3903 5.97991 15.4424 6.47068 13.82C6.59666 13.4035 6.44842 12.952 6.10144 12.6895C4.81849 11.7188 1.875 9.38962 1.875 8.45375C1.875 7.50405 6.00847 7.25798 7.71445 7.19686C8.14716 7.18136 8.52425 6.90062 8.66189 6.49009C9.08056 5.2413 10.0121 2.62193 10.826 1.45607Z" fill="#F8B319"/>
<path d="M10.826 1.45607C11.1282 1.02329 11.5526 1.28148 11.5827 1.80843C11.7698 5.08753 12.3227 15.9198 11.5033 16.6223C11.5007 16.6245 11.5015 16.6237 11.4989 16.6259C11.4144 16.6967 6.48926 20.8122 5.59432 20.0213C4.88027 19.3903 5.97991 15.4424 6.47068 13.82C6.59666 13.4035 6.44842 12.952 6.10144 12.6895C4.81849 11.7188 1.875 9.38962 1.875 8.45375C1.875 7.50405 6.00847 7.25798 7.71445 7.19686C8.14716 7.18136 8.52425 6.90062 8.66189 6.49009C9.08056 5.2413 10.0121 2.62193 10.826 1.45607Z" stroke="#F8B319" stroke-width="2" stroke-linecap="round" stroke-linejoin="round"/>
</svg>
