<svg width="24" height="27" viewBox="0 0 24 27" fill="none" xmlns="http://www.w3.org/2000/svg">
<path d="M1 13.0909C1 15.6437 1.0665 17.4629 1.28113 18.8163C1.49358 20.1558 1.83711 20.9396 2.31996 21.4951C2.81162 22.0608 3.54214 22.5002 4.75903 22.9651C5.66398 23.3108 6.75137 23.6409 8.10867 24.0529C8.59827 24.2015 9.12299 24.3608 9.68693 24.5353C11.7072 25.1605 13.1538 25.2957 14.1923 25.0968C15.1715 24.9092 15.8493 24.4144 16.3628 23.5693C16.9059 22.6756 17.2748 21.3685 17.4967 19.5765C17.7171 17.7975 17.7826 15.6354 17.7826 13.0909C17.7826 10.5464 17.7171 8.38435 17.4967 6.60527C17.2748 4.81331 16.9059 3.5062 16.3628 2.61248C15.8493 1.76742 15.1715 1.27265 14.1923 1.08506C13.1538 0.886122 11.7072 1.02136 9.68692 1.64652C9.12307 1.821 8.59843 1.98025 8.1089 2.12884C6.75149 2.54087 5.66403 2.87096 4.75903 3.21667C3.54214 3.68154 2.81162 4.12096 2.31996 4.68661C1.83711 5.24212 1.49358 6.02593 1.28114 7.36552C1.0665 8.71893 1 10.5381 1 13.0909Z" stroke="#F9F9F9" stroke-width="2" stroke-linecap="round" stroke-linejoin="round"/>
<ellipse cx="1.04348" cy="1.04727" rx="1.04348" ry="1.04727" transform="matrix(-1 0 0 1 14.6087 12.2205)" fill="#F9F9F9"/>
<path d="M17.7391 22.5164C22.9565 22.5164 22.9565 21.243 22.9565 13.2604C22.9565 5.27783 22.9565 3.66547 17.7391 3.66547" stroke="#F9F9F9" stroke-width="2" stroke-linecap="round" stroke-linejoin="round"/>
</svg>
