<svg width="23" height="23" viewBox="0 0 23 23" fill="none" xmlns="http://www.w3.org/2000/svg">
<path d="M11.5273 1.875C12.4173 1.875 13.8061 5.84371 14.3416 7.48252C14.477 7.89686 14.8561 8.18141 15.2917 8.19708C17.0014 8.25857 21.125 8.50519 21.125 9.45375C21.125 10.3869 18.1984 12.7054 16.9096 13.6811C16.5574 13.9478 16.4108 14.409 16.5457 14.8297C17.068 16.4581 18.2274 20.3915 17.4602 21.0213C16.7063 21.6403 13.5342 19.2542 12.1503 18.1536C11.7703 17.8514 11.2293 17.851 10.8492 18.1531C9.46442 19.2535 6.29481 21.6404 5.59432 21.0213C4.88027 20.3903 5.97991 16.4424 6.47068 14.82C6.59666 14.4035 6.44842 13.952 6.10144 13.6895C4.81849 12.7188 1.875 10.3896 1.875 9.45375C1.875 8.50405 6.00847 8.25798 7.71445 8.19686C8.14716 8.18136 8.52425 7.90063 8.66189 7.49009C9.20974 5.85598 10.6359 1.875 11.5273 1.875Z" fill="#F8B319" stroke="#F8B319" stroke-width="2" stroke-linecap="round" stroke-linejoin="round"/>
</svg>
